<?xml version="1.0" standalone="no"?>
<!DOCTYPE svg PUBLIC "-//W3C//DTD SVG 20010904//EN"
 "http://www.w3.org/TR/2001/REC-SVG-20010904/DTD/svg10.dtd">
<svg version="1.0" xmlns="http://www.w3.org/2000/svg"
 width="512.000000pt" height="512.000000pt" viewBox="0 0 512.000000 512.000000"
 preserveAspectRatio="xMidYMid meet">
<metadata>
Created by potrace 1.14, written by Peter Selinger 2001-2017
</metadata>
<g transform="translate(0.000000,512.000000) scale(0.100000,-0.100000)"
fill="#000000" stroke="none">
<path d="M4750 5084 c-718 -86 -1314 -336 -1790 -751 -185 -161 -677 -712
-1169 -1308 -96 -115 -189 -226 -208 -247 l-35 -36 -397 5 c-218 4 -418 3
-444 -1 -47 -7 -51 -11 -153 -134 -174 -208 -385 -495 -382 -516 4 -24 -14
-19 393 -107 182 -39 334 -75 339 -80 6 -5 10 -33 10 -61 0 -42 -11 -79 -55
-183 -67 -155 -70 -166 -58 -210 42 -150 458 -577 633 -650 58 -24 91 -18 243
45 144 60 165 65 220 54 l30 -6 37 -176 c64 -297 113 -516 125 -545 10 -27 11
-27 40 -12 84 43 617 459 628 489 4 11 6 219 4 462 l-3 441 219 179 c659 540
1233 1058 1415 1274 155 185 318 450 423 689 167 382 274 843 292 1259 l6 142
-124 -1 c-68 -1 -176 -7 -239 -15z m-1099 -1148 c110 -25 215 -110 267 -216
24 -50 27 -66 27 -165 0 -98 -3 -116 -27 -167 -37 -80 -107 -152 -187 -191
-61 -30 -72 -32 -171 -32 -96 0 -110 3 -165 29 -158 78 -253 252 -225 413 27
157 143 287 291 327 68 19 119 19 190 2z"/>
<path d="M441 1315 c-55 -53 -122 -129 -149 -168 -106 -153 -190 -359 -232
-566 -37 -184 -63 -506 -44 -555 5 -14 28 -16 153 -16 389 0 751 103 994 283
83 61 257 228 257 247 0 13 -75 60 -95 60 -8 0 -36 -15 -62 -34 -153 -109
-433 -192 -678 -202 -66 -2 -144 -6 -174 -9 l-54 -4 7 132 c9 180 22 272 56
404 36 138 77 238 142 345 l50 83 -24 44 c-12 25 -29 47 -35 49 -7 2 -57 -40
-112 -93z"/>
</g>
</svg>
